#N canvas 947 425 450 300 10;
#X declare -lib mrpeach;
#X obj 58 93 TuioClient;
#X obj 58 128 route addCursor updateCursor removeCursor;
#X obj 20 18 import mrpeach;
#X obj 23 262 udpsend;
#X msg 21 66 connect localhost 7000;
#X obj 20 41 loadbang;
#X msg 58 174 /1/\$1;
#X obj 58 208 packOSC;
#X msg 122 175 /2/\$1;
#X msg 186 175 /3/\$1;
#X connect 0 0 1 0;
#X connect 1 0 6 0;
#X connect 1 1 8 0;
#X connect 1 2 9 0;
#X connect 4 0 3 0;
#X connect 5 0 4 0;
#X connect 6 0 7 0;
#X connect 7 0 3 0;
#X connect 8 0 7 0;
#X connect 9 0 7 0;
